<?xml version="1.0" standalone="no"?>
<!DOCTYPE svg PUBLIC "-//W3C//DTD SVG 20010904//EN"
 "http://www.w3.org/TR/2001/REC-SVG-20010904/DTD/svg10.dtd">
<svg version="1.0" xmlns="http://www.w3.org/2000/svg"
 width="430.000000pt" height="430.000000pt" viewBox="0 0 430.000000 430.000000"
 preserveAspectRatio="xMidYMid meet">
<metadata>
Created by potrace 1.14, written by Peter Selinger 2001-2017
</metadata>
<g transform="translate(0.000000,430.000000) scale(0.100000,-0.100000)"
fill="#000000" stroke="none">
<path d="M2578 3635 c-2 -1 -34 -5 -73 -8 -38 -4 -83 -9 -100 -12 -16 -3 -59
-10 -95 -16 -98 -17 -223 -53 -337 -98 -48 -19 -164 -28 -147 -11 5 4 51 29
102 56 50 26 90 49 88 51 -6 6 -192 -53 -275 -86 l-71 -30 -388 0 c-213 0
-403 0 -422 0 l-36 -1 -62 -152 c-34 -84 -67 -160 -72 -167 -7 -13 -59 -15
-324 -15 -174 0 -316 -1 -316 -3 0 -2 4 -11 10 -21 5 -9 36 -85 68 -168 43
-110 68 -159 91 -181 17 -17 31 -33 31 -37 0 -6 -88 -223 -110 -271 -5 -11
-30 -72 -55 -135 -26 -63 -53 -129 -61 -147 l-14 -32 89 -89 90 -89 194 -1
194 -2 37 93 c21 50 51 124 67 163 l29 70 45 -1 c25 0 45 -4 45 -8 0 -4 -7
-24 -16 -45 -63 -151 -90 -340 -73 -512 13 -123 41 -217 96 -321 35 -68 146
-209 163 -209 6 0 10 -4 10 -9 0 -11 -193 75 -282 125 -50 28 -56 30 -41 11
35 -47 231 -180 343 -234 123 -60 357 -130 490 -148 25 -3 52 -8 62 -11 9 -3
40 -7 70 -9 29 -2 78 -7 108 -10 30 -3 89 -6 132 -8 42 -1 74 -5 72 -8 -2 -4
-32 -10 -66 -14 -35 -4 -74 -9 -88 -12 -49 -8 -346 -10 -420 -2 -114 12 -152
18 -187 28 -18 5 -33 8 -33 5 0 -8 49 -23 108 -33 31 -6 66 -12 78 -15 12 -2
45 -7 74 -11 29 -4 61 -8 71 -10 29 -6 230 -18 299 -18 74 0 272 11 310 18 14
2 45 7 70 10 50 5 85 12 144 25 67 15 25 -8 -83 -46 -57 -20 -111 -37 -120
-39 -9 -2 -41 -10 -71 -18 -54 -15 -207 -45 -265 -52 -16 -3 -55 -7 -85 -10
-30 -4 -66 -8 -80 -10 -14 -2 -66 -5 -117 -7 -98 -2 -118 -13 -31 -16 29 -2
78 -5 108 -9 136 -15 474 -5 595 18 28 5 64 12 80 15 17 3 48 10 70 16 22 6
46 12 52 14 29 5 144 45 209 72 106 43 182 84 267 145 42 31 77 52 77 47 0 -5
-15 -19 -32 -31 -18 -13 -35 -26 -38 -29 -23 -24 -212 -146 -287 -185 -40 -20
-73 -38 -73 -40 0 -5 45 9 105 32 62 25 84 32 90 33 3 0 22 9 42 20 21 11 41
20 44 20 8 0 192 101 199 109 3 4 31 24 63 46 33 22 102 80 154 130 l96 90 51
-48 c91 -86 196 -127 331 -131 206 -6 387 122 454 322 35 102 14 218 -53 295
-28 32 -26 46 7 66 12 8 71 50 130 95 l108 80 -118 119 c-65 65 -137 132 -161
149 -49 34 -143 74 -193 83 -18 3 -35 8 -37 10 -2 2 3 43 11 92 16 88 17 262
2 333 -50 250 -196 453 -425 590 -102 61 -279 130 -370 144 -8 2 -28 6 -45 9
-55 12 -119 19 -213 22 -51 1 -95 5 -98 8 -8 8 202 21 321 21 103 -1 273 -12
285 -19 3 -2 24 -6 45 -8 22 -3 52 -8 68 -12 15 -4 27 -5 27 -1 0 5 -63 24
-110 33 -14 2 -44 8 -67 14 -186 41 -499 55 -773 35 -66 -5 -101 -4 -95 2 10
9 207 62 305 81 30 6 66 13 80 16 14 3 48 8 75 11 28 3 59 7 70 9 11 1 50 3
88 4 37 0 67 5 67 9 0 5 -6 9 -12 10 -29 3 -437 10 -440 7z m362 -2614 c0 -5
-7 -12 -16 -15 -14 -5 -15 -4 -4 9 14 17 20 19 20 6z"/>
</g>
</svg>
