<?xml version="1.0" encoding="UTF-8"?>
<svg version="1.1" viewBox="0 0 724 464" xmlns="http://www.w3.org/2000/svg" xmlns:xlink="http://www.w3.org/1999/xlink" fill="none" stroke="#3f90f7" stroke-linejoin="round" stroke-width="4">
    <!-- 1mm == 3.78px -->
    <style>
        .gradient {
            stroke: none;
        }
    </style>
    <defs>
        <linearGradient id="base-background-gradient">
            <stop stop-color="#4293f8" offset="0" />
            <stop stop-color="#6cbcf8" offset="1" />
        </linearGradient>
        <linearGradient id="base-fill-gradient">
            <stop stop-color="#fff700" offset="0" />
            <stop stop-color="#f00" offset="1" />
        </linearGradient>
        <linearGradient id="background-gradient" x1="0%" x2="100%" y1="50%" y2="50%" gradientUnits="objectBoundingBox"
            xlink:href="#base-background-gradient" />
        <linearGradient id="fill-gradient" x1="0%" x2="100%" y1="50%" y2="50%" gradientUnits="objectBoundingBox"
            xlink:href="#base-fill-gradient" />
        <linearGradient id="short-fill-gradient" x1="50%" x2="50%" y1="100%" y2="0%" gradientUnits="objectBoundingBox"
            xlink:href="#base-fill-gradient" />

        <clipPath id="baseball-circle">
            <circle cx="362" cy="102" r="26" />
        </clipPath>
    </defs>
    <g id="down" transform="rotate(90, 362, 102)">
        <path d="M 422 82 H 702 l 20 20 l -20 20 H 422 z" fill="url(#background-gradient)" class="gradient" />
        <path d="M 422 82 H 702 l 20 20 l -20 20 H 422 z" fill="url(#fill-gradient)" class="gradient fill" />

        <path d="M 702 122 h -40 v -40 h 40 l 20 20 z" />
        <path d="M 662 122 h -40 v -40 h 40 z" />
        <path d="M 622 122 h -40 v -40 h 40 z" />
        <path d="M 582 122 h -40 v -40 h 40 z" />
        <path d="M 542 122 h -40 v -40 h 40 z" />
        <path d="M 502 122 h -40 v -40 h 40 z" />
        <path d="M 462 122 h -40 v -40 h 40 z" />
    </g>
    <g id="outside" transform="rotate(180, 362, 102)">
        <path d="M 422 82 H 702 l 20 20 l -20 20 H 422 z" fill="url(#background-gradient)" class="gradient" />
        <path d="M 422 82 H 702 l 20 20 l -20 20 H 422 z" fill="url(#fill-gradient)" class="gradient fill" />

        <path d="M 702 122 h -40 v -40 h 40 l 20 20 z" />
        <path d="M 662 122 h -40 v -40 h 40 z" />
        <path d="M 622 122 h -40 v -40 h 40 z" />
        <path d="M 582 122 h -40 v -40 h 40 z" />
        <path d="M 542 122 h -40 v -40 h 40 z" />
        <path d="M 502 122 h -40 v -40 h 40 z" />
        <path d="M 462 122 h -40 v -40 h 40 z" />
    </g>
    <g id="inside">
        <path d="M 422 82 H 702 l 20 20 l -20 20 H 422 z" fill="url(#background-gradient)" class="gradient" />
        <path d="M 422 82 H 702 l 20 20 l -20 20 H 422 z" fill="url(#fill-gradient)" class="gradient fill" />

        <path d="M 702 122 h -40 v -40 h 40 l 20 20 z" />
        <path d="M 662 122 h -40 v -40 h 40 z" />
        <path d="M 622 122 h -40 v -40 h 40 z" />
        <path d="M 582 122 h -40 v -40 h 40 z" />
        <path d="M 542 122 h -40 v -40 h 40 z" />
        <path d="M 502 122 h -40 v -40 h 40 z" />
        <path d="M 462 122 h -40 v -40 h 40 z" />
    </g>
    <g id="down-inside" transform="rotate(45, 362, 102)">
        <path d="M 422 82 H 702 l 20 20 l -20 20 H 422 z" fill="url(#background-gradient)" class="gradient" />
        <path d="M 422 82 H 702 l 20 20 l -20 20 H 422 z" fill="url(#fill-gradient)" stroke="none" class="fill" />

        <path d="M 702 122 h -40 v -40 h 40 l 20 20 z" />
        <path d="M 662 122 h -40 v -40 h 40 z" />
        <path d="M 622 122 h -40 v -40 h 40 z" />
        <path d="M 582 122 h -40 v -40 h 40 z" />
        <path d="M 542 122 h -40 v -40 h 40 z" />
        <path d="M 502 122 h -40 v -40 h 40 z" />
        <path d="M 462 122 h -40 v -40 h 40 z" />
    </g>
    <g id="down-outside" transform="rotate(135, 362, 102)">
        <path d="M 422 82 H 702 l 20 20 l -20 20 H 422 z" fill="url(#background-gradient)" class="gradient" />
        <path d="M 422 82 H 702 l 20 20 l -20 20 H 422 z" fill="url(#fill-gradient)" class="gradient fill" />

        <path d="M 702 122 h -40 v -40 h 40 l 20 20 z" />
        <path d="M 662 122 h -40 v -40 h 40 z" />
        <path d="M 622 122 h -40 v -40 h 40 z" />
        <path d="M 582 122 h -40 v -40 h 40 z" />
        <path d="M 542 122 h -40 v -40 h 40 z" />
        <path d="M 502 122 h -40 v -40 h 40 z" />
        <path d="M 462 122 h -40 v -40 h 40 z" />
    </g>

    <g id="baseball">
        <circle id="circle-background" cx="362" cy="102" r="26" fill="white" />

        <g clip-path="url(#baseball-circle)" stroke="#ff0000" stroke-width="2.5">
            <circle transform="translate(-30)" cx="362" cy="102" r="26" />
            <circle transform="translate(30)" cx="362" cy="102" r="26" />
        </g>

        <circle id="circle-cover" cx="362" cy="102" r="26" />
    </g>

    <g id="single-up">
        <path d="M 342 22 l 0 40 h 40 v -40l -20 -20 z" fill="url(#short-fill-gradient)" />
    </g>
    <g id="double-up-group">
        <g transform="translate(-15)">
            <path d="M 342 22 l 0 40 h 40 v -40l -20 -20 z" fill="url(#short-fill-gradient)" />
        </g>
        <g transform="translate(15)">
            <path d="M 342 22 l 0 40 h 40 v -40l -20 -20 z" fill="url(#short-fill-gradient)" />
        </g>
    </g>
</svg>